<?xml version="1.0" encoding="UTF-8"?><svg xmlns="http://www.w3.org/2000/svg" xmlns:xlink="http://www.w3.org/1999/xlink" fill-opacity="1" color-rendering="auto" color-interpolation="auto" text-rendering="auto" stroke="black" stroke-linecap="square" width="678" stroke-miterlimit="10" shape-rendering="auto" stroke-opacity="1" fill="black" stroke-dasharray="none" font-weight="normal" stroke-width="1" height="564" font-family="'Dialog'" font-style="normal" stroke-linejoin="miter" font-size="12px" stroke-dashoffset="0" image-rendering="auto">
  <!--Generated by ySVG 2.5-->
  <defs id="genericDefs"/>
  <g>
    <defs id="defs1">
      <linearGradient x1="315.502" gradientUnits="userSpaceOnUse" x2="336.8354" y1="204" y2="204" id="linearGradient1" spreadMethod="reflect">
        <stop stop-opacity="1" stop-color="lime" offset="0%"/>
        <stop stop-opacity="1" stop-color="red" offset="100%"/>
      </linearGradient>
      <clipPath clipPathUnits="userSpaceOnUse" id="clipPath1">
        <path d="M0 0 L678 0 L678 564 L0 564 L0 0 Z"/>
      </clipPath>
      <clipPath clipPathUnits="userSpaceOnUse" id="clipPath2">
        <path d="M-15 -31 L663 -31 L663 533 L-15 533 L-15 -31 Z"/>
      </clipPath>
      <clipPath clipPathUnits="userSpaceOnUse" id="clipPath3">
        <path d="M0 0 L0 17 L83 17 L83 0 Z"/>
      </clipPath>
      <clipPath clipPathUnits="userSpaceOnUse" id="clipPath4">
        <path d="M0 0 L0 17 L189 17 L189 0 Z"/>
      </clipPath>
      <clipPath clipPathUnits="userSpaceOnUse" id="clipPath5">
        <path d="M0 0 L0 17 L91 17 L91 0 Z"/>
      </clipPath>
      <clipPath clipPathUnits="userSpaceOnUse" id="clipPath6">
        <path d="M0 0 L0 17 L90 17 L90 0 Z"/>
      </clipPath>
      <script type="text/ecmascript"><![CDATA[      var SVGDocument = null;
      var SVGRoot = null;
      var TrueCoords = null;
      var lastElement = null;
      var initialized = null;
      var tipGroup;
      function Init(evt)
      {
         SVGDocument = evt.target.ownerDocument;
         SVGRoot = SVGDocument.documentElement;
         TrueCoords = SVGRoot.createSVGPoint();
         initialized = evt;
      };
      function GetTrueCoords(evt)
      {
         var newScale = SVGRoot.currentScale;
         var translation = SVGRoot.currentTranslate;
         TrueCoords.x = (evt.clientX - translation.x)/newScale;
         TrueCoords.y = (evt.clientY - translation.y)/newScale;
      };
      function HideTooltip( evt )
      {
         if(initialized == null) {
           Init(evt);
         }
         if(tipGroup != null) {
           tipGroup.setAttributeNS(null, 'visibility', 'hidden');
         }
      };
      function ShowTooltip( evt )
      {
         if(initialized == null) {
           Init(evt);
         }
         GetTrueCoords( evt );
         var tipScale = 1/SVGRoot.currentScale;
         var targetElement = evt.currentTarget;
         if ( lastElement != targetElement )
         {
            var targetId = targetElement.getAttributeNS(null, 'id');
            var tipId = 'tooltip.' + targetId;
            tipGroup = SVGDocument.getElementById(tipId);
            var xPos = TrueCoords.x + (10 * tipScale);
            var yPos = TrueCoords.y + (10 * tipScale);
            tipGroup.setAttributeNS(null, 'transform', 'translate(' + xPos + ',' + yPos + ') scale(' + tipScale + ')');
            tipGroup.setAttributeNS(null, 'visibility', 'visible');
         }
      };
]]></script>
    </defs>
    <g fill="white" text-rendering="geometricPrecision" shape-rendering="geometricPrecision" transform="translate(15,31)" stroke="white">
      <rect x="-15" width="678" height="564" y="-31" clip-path="url(#clipPath2)" stroke="none"/>
    </g>
    <g id="y.node.0">
      <g fill="rgb(204,153,255)" text-rendering="geometricPrecision" shape-rendering="geometricPrecision" transform="matrix(1,0,0,1,15,31)" stroke="rgb(204,153,255)">
        <rect x="296.5017" y="0" width="80.0005" rx="4" ry="4" height="30" stroke="none"/>
      </g>
      <g>
        <g text-rendering="geometricPrecision" stroke-miterlimit="1.45" shape-rendering="geometricPrecision" font-family="'Ubuntu Mono'" transform="matrix(1,0,0,1,15,31)" stroke-linecap="butt">
          <text x="303.5017" xml:space="preserve" y="18.96" stroke="none">E2F2::TFDP1</text>
        </g>
      </g>
    </g>
    <g id="y.node.1">
      <g fill="rgb(204,153,255)" text-rendering="geometricPrecision" shape-rendering="geometricPrecision" transform="matrix(1,0,0,1,15,31)" stroke="rgb(204,153,255)">
        <rect x="325.1685" y="422" width="44.0002" rx="4" ry="4" height="30" stroke="none"/>
      </g>
      <g>
        <g text-rendering="geometricPrecision" stroke-miterlimit="1.45" shape-rendering="geometricPrecision" font-family="'Ubuntu Mono'" transform="matrix(1,0,0,1,15,31)" stroke-linecap="butt">
          <text x="332.1685" xml:space="preserve" y="440.96" stroke="none">CCNE2</text>
        </g>
      </g>
    </g>
    <g id="y.node.2">
      <g fill="rgb(204,153,255)" text-rendering="geometricPrecision" shape-rendering="geometricPrecision" transform="matrix(1,0,0,1,15,31)" stroke="rgb(204,153,255)">
        <rect x="290.8352" y="93" width="44.0002" rx="4" ry="4" height="30" stroke="none"/>
      </g>
      <g>
        <g text-rendering="geometricPrecision" stroke-miterlimit="1.45" shape-rendering="geometricPrecision" font-family="'Ubuntu Mono'" transform="matrix(1,0,0,1,15,31)" stroke-linecap="butt">
          <text x="297.8352" xml:space="preserve" y="111.96" stroke="none">CCNE1</text>
        </g>
      </g>
    </g>
    <g id="y.node.3">
      <g fill="rgb(204,153,255)" text-rendering="geometricPrecision" shape-rendering="geometricPrecision" transform="matrix(1,0,0,1,15,31)" stroke="rgb(204,153,255)">
        <rect x="63.5001" y="297" width="80.0005" rx="4" ry="4" height="30" stroke="none"/>
      </g>
      <g>
        <g text-rendering="geometricPrecision" stroke-miterlimit="1.45" shape-rendering="geometricPrecision" font-family="'Ubuntu Mono'" transform="matrix(1,0,0,1,15,31)" stroke-linecap="butt">
          <text x="70.5001" xml:space="preserve" y="315.96" stroke="none">E2F2::TFDP2</text>
        </g>
      </g>
    </g>
    <g id="y.node.4">
      <g fill="rgb(204,153,255)" text-rendering="geometricPrecision" shape-rendering="geometricPrecision" transform="matrix(1,0,0,1,15,31)" stroke="rgb(204,153,255)">
        <rect x="272.8351" y="143" width="80.0005" rx="4" ry="4" height="30" stroke="none"/>
      </g>
      <g>
        <g text-rendering="geometricPrecision" stroke-miterlimit="1.45" shape-rendering="geometricPrecision" font-family="'Ubuntu Mono'" transform="matrix(1,0,0,1,15,31)" stroke-linecap="butt">
          <text x="279.8351" xml:space="preserve" y="161.96" stroke="none">CDK2::CCNE1</text>
        </g>
      </g>
    </g>
    <g id="y.node.5">
      <g fill="url(#linearGradient1)" text-rendering="geometricPrecision" shape-rendering="geometricPrecision" transform="matrix(1,0,0,1,15,31)" stroke="url(#linearGradient1)">
        <rect x="304.8352" y="204" width="32.0001" rx="4" ry="4" height="30" stroke="none"/>
      </g>
      <g>
        <g text-rendering="geometricPrecision" stroke-miterlimit="1.45" shape-rendering="geometricPrecision" font-family="'Ubuntu Mono'" transform="matrix(1,0,0,1,15,31)" stroke-linecap="butt">
          <text x="311.8352" xml:space="preserve" y="222.96" stroke="none">RB1</text>
        </g>
      </g>
    </g>
    <g id="y.node.6">
      <g fill="rgb(204,153,255)" text-rendering="geometricPrecision" shape-rendering="geometricPrecision" transform="matrix(1,0,0,1,15,31)" stroke="rgb(204,153,255)">
        <rect x="307.1684" y="472" width="80.0005" rx="4" ry="4" height="30" stroke="none"/>
      </g>
      <g>
        <g text-rendering="geometricPrecision" stroke-miterlimit="1.45" shape-rendering="geometricPrecision" font-family="'Ubuntu Mono'" transform="matrix(1,0,0,1,15,31)" stroke-linecap="butt">
          <text x="314.1684" xml:space="preserve" y="490.96" stroke="none">CDK2::CCNE2</text>
        </g>
      </g>
    </g>
    <g id="y.node.7">
      <g fill="rgb(204,153,255)" text-rendering="geometricPrecision" shape-rendering="geometricPrecision" transform="matrix(1,0,0,1,15,31)" stroke="rgb(204,153,255)">
        <rect x="173.5009" y="297" width="80.0005" rx="4" ry="4" height="30" stroke="none"/>
      </g>
      <g>
        <g text-rendering="geometricPrecision" stroke-miterlimit="1.45" shape-rendering="geometricPrecision" font-family="'Ubuntu Mono'" transform="matrix(1,0,0,1,15,31)" stroke-linecap="butt">
          <text x="180.5009" xml:space="preserve" y="315.96" stroke="none">E2F1::TFDP1</text>
        </g>
      </g>
    </g>
    <g id="y.node.8">
      <g fill="rgb(204,153,255)" text-rendering="geometricPrecision" shape-rendering="geometricPrecision" transform="matrix(1,0,0,1,15,31)" stroke="rgb(204,153,255)">
        <rect x="283.5017" y="297" width="80.0005" rx="4" ry="4" height="30" stroke="none"/>
      </g>
      <g>
        <g text-rendering="geometricPrecision" stroke-miterlimit="1.45" shape-rendering="geometricPrecision" font-family="'Ubuntu Mono'" transform="matrix(1,0,0,1,15,31)" stroke-linecap="butt">
          <text x="290.5017" xml:space="preserve" y="315.96" stroke="none">E2F1::TFDP2</text>
        </g>
      </g>
    </g>
    <g id="y.node.9">
      <g fill="rgb(204,153,255)" text-rendering="geometricPrecision" shape-rendering="geometricPrecision" transform="matrix(1,0,0,1,15,31)" stroke="rgb(204,153,255)">
        <rect x="503.5033" y="297" width="80.0005" rx="4" ry="4" height="30" stroke="none"/>
      </g>
      <g>
        <g text-rendering="geometricPrecision" stroke-miterlimit="1.45" shape-rendering="geometricPrecision" font-family="'Ubuntu Mono'" transform="matrix(1,0,0,1,15,31)" stroke-linecap="butt">
          <text x="510.5033" xml:space="preserve" y="315.96" stroke="none">E2F3::TFDP2</text>
        </g>
      </g>
    </g>
    <g id="y.node.10">
      <g fill="rgb(204,153,255)" text-rendering="geometricPrecision" shape-rendering="geometricPrecision" transform="matrix(1,0,0,1,15,31)" stroke="rgb(204,153,255)">
        <rect x="393.5025" y="297" width="80.0005" rx="4" ry="4" height="30" stroke="none"/>
      </g>
      <g>
        <g text-rendering="geometricPrecision" stroke-miterlimit="1.45" shape-rendering="geometricPrecision" font-family="'Ubuntu Mono'" transform="matrix(1,0,0,1,15,31)" stroke-linecap="butt">
          <text x="400.5025" xml:space="preserve" y="315.96" stroke="none">E2F3::TFDP1</text>
        </g>
      </g>
    </g>
    <g onmouseout="HideTooltip(evt)" id="y.edge.0" onmousemove="ShowTooltip(evt)">
      <g text-rendering="geometricPrecision" stroke-miterlimit="1.45" shape-rendering="geometricPrecision" transform="matrix(1,0,0,1,15,31)" stroke-linecap="butt">
        <path fill="none" d="M356.5021 30 L356.5021 45.5 L647.004 45.5 L647.004 390.5 L365.5021 390.5 L365.5021 422"/>
      </g>
    </g>
    <g onmouseout="HideTooltip(evt)" id="y.edge.1" onmousemove="ShowTooltip(evt)">
      <g text-rendering="geometricPrecision" stroke-miterlimit="1.45" shape-rendering="geometricPrecision" transform="matrix(1,0,0,1,15,31)" stroke-linecap="butt">
        <path fill="none" d="M316.5019 30 L316.502 92.9692"/>
      </g>
    </g>
    <g onmouseout="HideTooltip(evt)" id="y.edge.2" onmousemove="ShowTooltip(evt)">
      <g text-rendering="geometricPrecision" stroke-miterlimit="1.45" shape-rendering="geometricPrecision" transform="matrix(1,0,0,1,15,31)" stroke-linecap="butt">
        <path fill="none" d="M123.5005 327 L123.5005 406.5 L328.8352 406.5 L328.8352 422"/>
      </g>
    </g>
    <g onmouseout="HideTooltip(evt)" id="y.edge.3" onmousemove="ShowTooltip(evt)">
      <g text-rendering="geometricPrecision" stroke-miterlimit="1.45" shape-rendering="geometricPrecision" transform="matrix(1,0,0,1,15,31)" stroke-linecap="butt">
        <path fill="none" d="M83.5003 327 L83.5003 342.5 L48 342.5 L48 77.5 L294.5019 77.5 L294.5019 93"/>
      </g>
    </g>
    <g onmouseout="HideTooltip(evt)" id="y.edge.5" onmousemove="ShowTooltip(evt)">
      <g text-rendering="geometricPrecision" stroke-miterlimit="1.45" shape-rendering="geometricPrecision" transform="matrix(1,0,0,1,15,31)" stroke-linecap="butt">
        <path fill="none" d="M312.8353 123 L312.8353 142.9609"/>
      </g>
    </g>
    <g onmouseout="HideTooltip(evt)" id="y.edge.4" onmousemove="ShowTooltip(evt)">
      <g text-rendering="geometricPrecision" stroke-miterlimit="1.45" shape-rendering="geometricPrecision" transform="matrix(1,0,0,1,15,31)" stroke-linecap="butt">
        <path fill="none" d="M312.8353 173 L312.8353 203.9697"/>
      </g>
    </g>
    <g onmouseout="HideTooltip(evt)" id="y.edge.19" onmousemove="ShowTooltip(evt)">
      <g text-rendering="geometricPrecision" stroke-miterlimit="1.45" shape-rendering="geometricPrecision" transform="matrix(1,0,0,1,15,31)" stroke-linecap="butt">
        <path fill="none" d="M307.5019 233.7812 L307.5019 249.5 L64 249.5 L64 173.5 L53 173.5 M43 173.5 L0 173.5 L0 -15.5 L336.502 -15.5 L336.502 -0.0303"/>
      </g>
    </g>
    <g onmouseout="HideTooltip(evt)" id="y.edge.20" onmousemove="ShowTooltip(evt)">
      <g text-rendering="geometricPrecision" stroke-miterlimit="1.45" shape-rendering="geometricPrecision" transform="matrix(1,0,0,1,15,31)" stroke-linecap="butt">
        <path fill="none" d="M312.8353 234 L312.8353 265.5 L103.5004 265.5 L103.5004 296.9692"/>
      </g>
    </g>
    <g onmouseout="HideTooltip(evt)" id="y.edge.7" onmousemove="ShowTooltip(evt)">
      <g text-rendering="geometricPrecision" stroke-miterlimit="1.45" shape-rendering="geometricPrecision" transform="matrix(1,0,0,1,15,31)" stroke-linecap="butt">
        <path fill="none" d="M347.1686 452 L347.1686 471.9609"/>
      </g>
    </g>
    <g onmouseout="HideTooltip(evt)" id="y.edge.6" onmousemove="ShowTooltip(evt)">
      <g text-rendering="geometricPrecision" stroke-miterlimit="1.45" shape-rendering="geometricPrecision" transform="matrix(1,0,0,1,15,31)" stroke-linecap="butt">
        <path fill="none" d="M347.1686 502 L347.1686 517.5 L631.004 517.5 L631.004 395.5 M631.004 385.5 L631.004 234.5 L583.004 234.5 L583.004 188.5 L328.8354 188.5 L328.8354 203.9697"/>
      </g>
    </g>
    <g onmouseout="HideTooltip(evt)" id="y.edge.17" onmousemove="ShowTooltip(evt)">
      <g text-rendering="geometricPrecision" stroke-miterlimit="1.45" shape-rendering="geometricPrecision" transform="matrix(1,0,0,1,15,31)" stroke-linecap="butt">
        <path fill="none" d="M318.1686 234 L318.1686 281.5 L213.5012 281.5 L213.5012 296.9697"/>
      </g>
    </g>
    <g onmouseout="HideTooltip(evt)" id="y.edge.8" onmousemove="ShowTooltip(evt)">
      <g text-rendering="geometricPrecision" stroke-miterlimit="1.45" shape-rendering="geometricPrecision" transform="matrix(1,0,0,1,15,31)" stroke-linecap="butt">
        <path fill="none" d="M233.5013 327 L233.5013 390.5 L336.1686 390.5 L336.1686 421.9692"/>
      </g>
    </g>
    <g onmouseout="HideTooltip(evt)" id="y.edge.9" onmousemove="ShowTooltip(evt)">
      <g text-rendering="geometricPrecision" stroke-miterlimit="1.45" shape-rendering="geometricPrecision" transform="matrix(1,0,0,1,15,31)" stroke-linecap="butt">
        <path fill="none" d="M193.5011 327 L193.5011 358.5 L128.5005 358.5 M118.5005 358.5 L32 358.5 L32 178.5 M32 168.5 L32 61.5 L301.8353 61.5 L301.8353 92.9692"/>
      </g>
    </g>
    <g onmouseout="HideTooltip(evt)" id="y.edge.18" onmousemove="ShowTooltip(evt)">
      <g text-rendering="geometricPrecision" stroke-miterlimit="1.45" shape-rendering="geometricPrecision" transform="matrix(1,0,0,1,15,31)" stroke-linecap="butt">
        <path fill="none" d="M323.502 234 L323.502 296.9692"/>
      </g>
    </g>
    <g onmouseout="HideTooltip(evt)" id="y.edge.10" onmousemove="ShowTooltip(evt)">
      <g text-rendering="geometricPrecision" stroke-miterlimit="1.45" shape-rendering="geometricPrecision" transform="matrix(1,0,0,1,15,31)" stroke-linecap="butt">
        <path fill="none" d="M343.5021 327 L343.502 421.9536"/>
      </g>
    </g>
    <g onmouseout="HideTooltip(evt)" id="y.edge.11" onmousemove="ShowTooltip(evt)">
      <g text-rendering="geometricPrecision" stroke-miterlimit="1.45" shape-rendering="geometricPrecision" transform="matrix(1,0,0,1,15,31)" stroke-linecap="butt">
        <path fill="none" d="M303.5019 327 L303.5019 374.5 L238.5013 374.5 M228.5013 374.5 L128.5005 374.5 M118.5005 374.5 L16 374.5 L16 178.5 M16 168.5 L16 45.5 L309.1686 45.5 L309.1686 92.9536"/>
      </g>
    </g>
    <g onmouseout="HideTooltip(evt)" id="y.edge.16" onmousemove="ShowTooltip(evt)">
      <g text-rendering="geometricPrecision" stroke-miterlimit="1.45" shape-rendering="geometricPrecision" transform="matrix(1,0,0,1,15,31)" stroke-linecap="butt">
        <path fill="none" d="M334.1687 233.7812 L334.1687 249.5 L543.5036 249.5 L543.5036 296.9536"/>
      </g>
    </g>
    <g onmouseout="HideTooltip(evt)" id="y.edge.12" onmousemove="ShowTooltip(evt)">
      <g text-rendering="geometricPrecision" stroke-miterlimit="1.45" shape-rendering="geometricPrecision" transform="matrix(1,0,0,1,15,31)" stroke-linecap="butt">
        <path fill="none" d="M523.5034 327 L523.5034 374.5 L358.1687 374.5 L358.1687 421.9536"/>
      </g>
    </g>
    <g onmouseout="HideTooltip(evt)" id="y.edge.13" onmousemove="ShowTooltip(evt)">
      <g text-rendering="geometricPrecision" stroke-miterlimit="1.45" shape-rendering="geometricPrecision" transform="matrix(1,0,0,1,15,31)" stroke-linecap="butt">
        <path fill="none" d="M563.5037 327 L563.5037 342.5 L599.004 342.5 L599.004 239.5 M599.004 229.5 L599.004 77.5 L331.1687 77.5 L331.1687 93"/>
      </g>
    </g>
    <g onmouseout="HideTooltip(evt)" id="y.edge.21" onmousemove="ShowTooltip(evt)">
      <g text-rendering="geometricPrecision" stroke-miterlimit="1.45" shape-rendering="geometricPrecision" transform="matrix(1,0,0,1,15,31)" stroke-linecap="butt">
        <path fill="none" d="M328.8354 234 L328.8354 265.5 L433.5028 265.5 L433.5028 296.9692"/>
      </g>
    </g>
    <g onmouseout="HideTooltip(evt)" id="y.edge.14" onmousemove="ShowTooltip(evt)">
      <g text-rendering="geometricPrecision" stroke-miterlimit="1.45" shape-rendering="geometricPrecision" transform="matrix(1,0,0,1,15,31)" stroke-linecap="butt">
        <path fill="none" d="M413.5027 327 L413.5027 342.5 L350.8353 342.5 L350.8353 421.9612"/>
      </g>
    </g>
    <g onmouseout="HideTooltip(evt)" id="y.edge.15" onmousemove="ShowTooltip(evt)">
      <g text-rendering="geometricPrecision" stroke-miterlimit="1.45" shape-rendering="geometricPrecision" transform="matrix(1,0,0,1,15,31)" stroke-linecap="butt">
        <path fill="none" d="M453.5029 327 L453.5029 358.5 L518.5034 358.5 M528.5034 358.5 L615.004 358.5 L615.004 239.5 M615.004 229.5 L615.004 61.5 L323.8354 61.5 L323.8354 92.9692"/>
      </g>
    </g>
    <g visibility="hidden" id="tooltip.y.edge.0" pointer-events="none">
      <g fill="rgb(195,212,232)" text-rendering="geometricPrecision" shape-rendering="geometricPrecision" font-family="sans-serif" stroke="rgb(195,212,232)">
        <rect x="0" width="83" height="17" y="0" clip-path="url(#clipPath3)" stroke="none"/>
        <text fill="black" x="4" xml:space="preserve" y="13" clip-path="url(#clipPath3)" stroke="none">expression_GErel</text>
      </g>
      <g fill="rgb(49,106,196)" text-rendering="geometricPrecision" shape-rendering="geometricPrecision" font-family="sans-serif" stroke="rgb(49,106,196)">
        <path d="M0 0 L83 0 L83 17 L0 17 L0 0 ZM1 1 L82 1 L82 16 L1 16 L1 1 Z" fill-rule="evenodd" clip-path="url(#clipPath3)" stroke="none"/>
      </g>
    </g>
    <g visibility="hidden" id="tooltip.y.edge.1" pointer-events="none">
      <g fill="rgb(195,212,232)" text-rendering="geometricPrecision" shape-rendering="geometricPrecision" font-family="sans-serif" stroke="rgb(195,212,232)">
        <rect x="0" width="83" height="17" y="0" clip-path="url(#clipPath3)" stroke="none"/>
        <text fill="black" x="4" xml:space="preserve" y="13" clip-path="url(#clipPath3)" stroke="none">expression_GErel</text>
      </g>
      <g fill="rgb(49,106,196)" text-rendering="geometricPrecision" shape-rendering="geometricPrecision" font-family="sans-serif" stroke="rgb(49,106,196)">
        <path d="M0 0 L83 0 L83 17 L0 17 L0 0 ZM1 1 L82 1 L82 16 L1 16 L1 1 Z" fill-rule="evenodd" clip-path="url(#clipPath3)" stroke="none"/>
      </g>
    </g>
    <g visibility="hidden" id="tooltip.y.edge.2" pointer-events="none">
      <g fill="rgb(195,212,232)" text-rendering="geometricPrecision" shape-rendering="geometricPrecision" font-family="sans-serif" stroke="rgb(195,212,232)">
        <rect x="0" width="83" height="17" y="0" clip-path="url(#clipPath3)" stroke="none"/>
        <text fill="black" x="4" xml:space="preserve" y="13" clip-path="url(#clipPath3)" stroke="none">expression_GErel</text>
      </g>
      <g fill="rgb(49,106,196)" text-rendering="geometricPrecision" shape-rendering="geometricPrecision" font-family="sans-serif" stroke="rgb(49,106,196)">
        <path d="M0 0 L83 0 L83 17 L0 17 L0 0 ZM1 1 L82 1 L82 16 L1 16 L1 1 Z" fill-rule="evenodd" clip-path="url(#clipPath3)" stroke="none"/>
      </g>
    </g>
    <g visibility="hidden" id="tooltip.y.edge.3" pointer-events="none">
      <g fill="rgb(195,212,232)" text-rendering="geometricPrecision" shape-rendering="geometricPrecision" font-family="sans-serif" stroke="rgb(195,212,232)">
        <rect x="0" width="83" height="17" y="0" clip-path="url(#clipPath3)" stroke="none"/>
        <text fill="black" x="4" xml:space="preserve" y="13" clip-path="url(#clipPath3)" stroke="none">expression_GErel</text>
      </g>
      <g fill="rgb(49,106,196)" text-rendering="geometricPrecision" shape-rendering="geometricPrecision" font-family="sans-serif" stroke="rgb(49,106,196)">
        <path d="M0 0 L83 0 L83 17 L0 17 L0 0 ZM1 1 L82 1 L82 16 L1 16 L1 1 Z" fill-rule="evenodd" clip-path="url(#clipPath3)" stroke="none"/>
      </g>
    </g>
    <g visibility="hidden" id="tooltip.y.edge.4" pointer-events="none">
      <g fill="rgb(195,212,232)" text-rendering="geometricPrecision" shape-rendering="geometricPrecision" font-family="sans-serif" stroke="rgb(195,212,232)">
        <rect x="0" width="189" height="17" y="0" clip-path="url(#clipPath4)" stroke="none"/>
        <text fill="black" x="4" xml:space="preserve" y="13" clip-path="url(#clipPath4)" stroke="none">inhibition_PPrel,phosphorylation_PPrel</text>
      </g>
      <g fill="rgb(49,106,196)" text-rendering="geometricPrecision" shape-rendering="geometricPrecision" font-family="sans-serif" stroke="rgb(49,106,196)">
        <path d="M0 0 L189 0 L189 17 L0 17 L0 0 ZM1 1 L188 1 L188 16 L1 16 L1 1 Z" fill-rule="evenodd" clip-path="url(#clipPath4)" stroke="none"/>
      </g>
    </g>
    <g visibility="hidden" id="tooltip.y.edge.5" pointer-events="none">
      <g fill="rgb(195,212,232)" text-rendering="geometricPrecision" shape-rendering="geometricPrecision" font-family="sans-serif" stroke="rgb(195,212,232)">
        <rect x="0" width="91" height="17" y="0" clip-path="url(#clipPath5)" stroke="none"/>
        <text fill="black" x="4" xml:space="preserve" y="13" clip-path="url(#clipPath5)" stroke="none">membership_PXrel</text>
      </g>
      <g fill="rgb(49,106,196)" text-rendering="geometricPrecision" shape-rendering="geometricPrecision" font-family="sans-serif" stroke="rgb(49,106,196)">
        <path d="M0 0 L91 0 L91 17 L0 17 L0 0 ZM1 1 L90 1 L90 16 L1 16 L1 1 Z" fill-rule="evenodd" clip-path="url(#clipPath5)" stroke="none"/>
      </g>
    </g>
    <g visibility="hidden" id="tooltip.y.edge.6" pointer-events="none">
      <g fill="rgb(195,212,232)" text-rendering="geometricPrecision" shape-rendering="geometricPrecision" font-family="sans-serif" stroke="rgb(195,212,232)">
        <rect x="0" width="189" height="17" y="0" clip-path="url(#clipPath4)" stroke="none"/>
        <text fill="black" x="4" xml:space="preserve" y="13" clip-path="url(#clipPath4)" stroke="none">inhibition_PPrel,phosphorylation_PPrel</text>
      </g>
      <g fill="rgb(49,106,196)" text-rendering="geometricPrecision" shape-rendering="geometricPrecision" font-family="sans-serif" stroke="rgb(49,106,196)">
        <path d="M0 0 L189 0 L189 17 L0 17 L0 0 ZM1 1 L188 1 L188 16 L1 16 L1 1 Z" fill-rule="evenodd" clip-path="url(#clipPath4)" stroke="none"/>
      </g>
    </g>
    <g visibility="hidden" id="tooltip.y.edge.7" pointer-events="none">
      <g fill="rgb(195,212,232)" text-rendering="geometricPrecision" shape-rendering="geometricPrecision" font-family="sans-serif" stroke="rgb(195,212,232)">
        <rect x="0" width="91" height="17" y="0" clip-path="url(#clipPath5)" stroke="none"/>
        <text fill="black" x="4" xml:space="preserve" y="13" clip-path="url(#clipPath5)" stroke="none">membership_PXrel</text>
      </g>
      <g fill="rgb(49,106,196)" text-rendering="geometricPrecision" shape-rendering="geometricPrecision" font-family="sans-serif" stroke="rgb(49,106,196)">
        <path d="M0 0 L91 0 L91 17 L0 17 L0 0 ZM1 1 L90 1 L90 16 L1 16 L1 1 Z" fill-rule="evenodd" clip-path="url(#clipPath5)" stroke="none"/>
      </g>
    </g>
    <g visibility="hidden" id="tooltip.y.edge.8" pointer-events="none">
      <g fill="rgb(195,212,232)" text-rendering="geometricPrecision" shape-rendering="geometricPrecision" font-family="sans-serif" stroke="rgb(195,212,232)">
        <rect x="0" width="83" height="17" y="0" clip-path="url(#clipPath3)" stroke="none"/>
        <text fill="black" x="4" xml:space="preserve" y="13" clip-path="url(#clipPath3)" stroke="none">expression_GErel</text>
      </g>
      <g fill="rgb(49,106,196)" text-rendering="geometricPrecision" shape-rendering="geometricPrecision" font-family="sans-serif" stroke="rgb(49,106,196)">
        <path d="M0 0 L83 0 L83 17 L0 17 L0 0 ZM1 1 L82 1 L82 16 L1 16 L1 1 Z" fill-rule="evenodd" clip-path="url(#clipPath3)" stroke="none"/>
      </g>
    </g>
    <g visibility="hidden" id="tooltip.y.edge.9" pointer-events="none">
      <g fill="rgb(195,212,232)" text-rendering="geometricPrecision" shape-rendering="geometricPrecision" font-family="sans-serif" stroke="rgb(195,212,232)">
        <rect x="0" width="83" height="17" y="0" clip-path="url(#clipPath3)" stroke="none"/>
        <text fill="black" x="4" xml:space="preserve" y="13" clip-path="url(#clipPath3)" stroke="none">expression_GErel</text>
      </g>
      <g fill="rgb(49,106,196)" text-rendering="geometricPrecision" shape-rendering="geometricPrecision" font-family="sans-serif" stroke="rgb(49,106,196)">
        <path d="M0 0 L83 0 L83 17 L0 17 L0 0 ZM1 1 L82 1 L82 16 L1 16 L1 1 Z" fill-rule="evenodd" clip-path="url(#clipPath3)" stroke="none"/>
      </g>
    </g>
    <g visibility="hidden" id="tooltip.y.edge.10" pointer-events="none">
      <g fill="rgb(195,212,232)" text-rendering="geometricPrecision" shape-rendering="geometricPrecision" font-family="sans-serif" stroke="rgb(195,212,232)">
        <rect x="0" width="83" height="17" y="0" clip-path="url(#clipPath3)" stroke="none"/>
        <text fill="black" x="4" xml:space="preserve" y="13" clip-path="url(#clipPath3)" stroke="none">expression_GErel</text>
      </g>
      <g fill="rgb(49,106,196)" text-rendering="geometricPrecision" shape-rendering="geometricPrecision" font-family="sans-serif" stroke="rgb(49,106,196)">
        <path d="M0 0 L83 0 L83 17 L0 17 L0 0 ZM1 1 L82 1 L82 16 L1 16 L1 1 Z" fill-rule="evenodd" clip-path="url(#clipPath3)" stroke="none"/>
      </g>
    </g>
    <g visibility="hidden" id="tooltip.y.edge.11" pointer-events="none">
      <g fill="rgb(195,212,232)" text-rendering="geometricPrecision" shape-rendering="geometricPrecision" font-family="sans-serif" stroke="rgb(195,212,232)">
        <rect x="0" width="83" height="17" y="0" clip-path="url(#clipPath3)" stroke="none"/>
        <text fill="black" x="4" xml:space="preserve" y="13" clip-path="url(#clipPath3)" stroke="none">expression_GErel</text>
      </g>
      <g fill="rgb(49,106,196)" text-rendering="geometricPrecision" shape-rendering="geometricPrecision" font-family="sans-serif" stroke="rgb(49,106,196)">
        <path d="M0 0 L83 0 L83 17 L0 17 L0 0 ZM1 1 L82 1 L82 16 L1 16 L1 1 Z" fill-rule="evenodd" clip-path="url(#clipPath3)" stroke="none"/>
      </g>
    </g>
    <g visibility="hidden" id="tooltip.y.edge.12" pointer-events="none">
      <g fill="rgb(195,212,232)" text-rendering="geometricPrecision" shape-rendering="geometricPrecision" font-family="sans-serif" stroke="rgb(195,212,232)">
        <rect x="0" width="83" height="17" y="0" clip-path="url(#clipPath3)" stroke="none"/>
        <text fill="black" x="4" xml:space="preserve" y="13" clip-path="url(#clipPath3)" stroke="none">expression_GErel</text>
      </g>
      <g fill="rgb(49,106,196)" text-rendering="geometricPrecision" shape-rendering="geometricPrecision" font-family="sans-serif" stroke="rgb(49,106,196)">
        <path d="M0 0 L83 0 L83 17 L0 17 L0 0 ZM1 1 L82 1 L82 16 L1 16 L1 1 Z" fill-rule="evenodd" clip-path="url(#clipPath3)" stroke="none"/>
      </g>
    </g>
    <g visibility="hidden" id="tooltip.y.edge.13" pointer-events="none">
      <g fill="rgb(195,212,232)" text-rendering="geometricPrecision" shape-rendering="geometricPrecision" font-family="sans-serif" stroke="rgb(195,212,232)">
        <rect x="0" width="83" height="17" y="0" clip-path="url(#clipPath3)" stroke="none"/>
        <text fill="black" x="4" xml:space="preserve" y="13" clip-path="url(#clipPath3)" stroke="none">expression_GErel</text>
      </g>
      <g fill="rgb(49,106,196)" text-rendering="geometricPrecision" shape-rendering="geometricPrecision" font-family="sans-serif" stroke="rgb(49,106,196)">
        <path d="M0 0 L83 0 L83 17 L0 17 L0 0 ZM1 1 L82 1 L82 16 L1 16 L1 1 Z" fill-rule="evenodd" clip-path="url(#clipPath3)" stroke="none"/>
      </g>
    </g>
    <g visibility="hidden" id="tooltip.y.edge.14" pointer-events="none">
      <g fill="rgb(195,212,232)" text-rendering="geometricPrecision" shape-rendering="geometricPrecision" font-family="sans-serif" stroke="rgb(195,212,232)">
        <rect x="0" width="83" height="17" y="0" clip-path="url(#clipPath3)" stroke="none"/>
        <text fill="black" x="4" xml:space="preserve" y="13" clip-path="url(#clipPath3)" stroke="none">expression_GErel</text>
      </g>
      <g fill="rgb(49,106,196)" text-rendering="geometricPrecision" shape-rendering="geometricPrecision" font-family="sans-serif" stroke="rgb(49,106,196)">
        <path d="M0 0 L83 0 L83 17 L0 17 L0 0 ZM1 1 L82 1 L82 16 L1 16 L1 1 Z" fill-rule="evenodd" clip-path="url(#clipPath3)" stroke="none"/>
      </g>
    </g>
    <g visibility="hidden" id="tooltip.y.edge.15" pointer-events="none">
      <g fill="rgb(195,212,232)" text-rendering="geometricPrecision" shape-rendering="geometricPrecision" font-family="sans-serif" stroke="rgb(195,212,232)">
        <rect x="0" width="83" height="17" y="0" clip-path="url(#clipPath3)" stroke="none"/>
        <text fill="black" x="4" xml:space="preserve" y="13" clip-path="url(#clipPath3)" stroke="none">expression_GErel</text>
      </g>
      <g fill="rgb(49,106,196)" text-rendering="geometricPrecision" shape-rendering="geometricPrecision" font-family="sans-serif" stroke="rgb(49,106,196)">
        <path d="M0 0 L83 0 L83 17 L0 17 L0 0 ZM1 1 L82 1 L82 16 L1 16 L1 1 Z" fill-rule="evenodd" clip-path="url(#clipPath3)" stroke="none"/>
      </g>
    </g>
    <g visibility="hidden" id="tooltip.y.edge.16" pointer-events="none">
      <g fill="rgb(195,212,232)" text-rendering="geometricPrecision" shape-rendering="geometricPrecision" font-family="sans-serif" stroke="rgb(195,212,232)">
        <rect x="0" width="90" height="17" y="0" clip-path="url(#clipPath6)" stroke="none"/>
        <text fill="black" x="4" xml:space="preserve" y="13" clip-path="url(#clipPath6)" stroke="none">dissociation_PPrel</text>
      </g>
      <g fill="rgb(49,106,196)" text-rendering="geometricPrecision" shape-rendering="geometricPrecision" font-family="sans-serif" stroke="rgb(49,106,196)">
        <path d="M0 0 L90 0 L90 17 L0 17 L0 0 ZM1 1 L89 1 L89 16 L1 16 L1 1 Z" fill-rule="evenodd" clip-path="url(#clipPath6)" stroke="none"/>
      </g>
    </g>
    <g visibility="hidden" id="tooltip.y.edge.17" pointer-events="none">
      <g fill="rgb(195,212,232)" text-rendering="geometricPrecision" shape-rendering="geometricPrecision" font-family="sans-serif" stroke="rgb(195,212,232)">
        <rect x="0" width="90" height="17" y="0" clip-path="url(#clipPath6)" stroke="none"/>
        <text fill="black" x="4" xml:space="preserve" y="13" clip-path="url(#clipPath6)" stroke="none">dissociation_PPrel</text>
      </g>
      <g fill="rgb(49,106,196)" text-rendering="geometricPrecision" shape-rendering="geometricPrecision" font-family="sans-serif" stroke="rgb(49,106,196)">
        <path d="M0 0 L90 0 L90 17 L0 17 L0 0 ZM1 1 L89 1 L89 16 L1 16 L1 1 Z" fill-rule="evenodd" clip-path="url(#clipPath6)" stroke="none"/>
      </g>
    </g>
    <g visibility="hidden" id="tooltip.y.edge.18" pointer-events="none">
      <g fill="rgb(195,212,232)" text-rendering="geometricPrecision" shape-rendering="geometricPrecision" font-family="sans-serif" stroke="rgb(195,212,232)">
        <rect x="0" width="90" height="17" y="0" clip-path="url(#clipPath6)" stroke="none"/>
        <text fill="black" x="4" xml:space="preserve" y="13" clip-path="url(#clipPath6)" stroke="none">dissociation_PPrel</text>
      </g>
      <g fill="rgb(49,106,196)" text-rendering="geometricPrecision" shape-rendering="geometricPrecision" font-family="sans-serif" stroke="rgb(49,106,196)">
        <path d="M0 0 L90 0 L90 17 L0 17 L0 0 ZM1 1 L89 1 L89 16 L1 16 L1 1 Z" fill-rule="evenodd" clip-path="url(#clipPath6)" stroke="none"/>
      </g>
    </g>
    <g visibility="hidden" id="tooltip.y.edge.19" pointer-events="none">
      <g fill="rgb(195,212,232)" text-rendering="geometricPrecision" shape-rendering="geometricPrecision" font-family="sans-serif" stroke="rgb(195,212,232)">
        <rect x="0" width="90" height="17" y="0" clip-path="url(#clipPath6)" stroke="none"/>
        <text fill="black" x="4" xml:space="preserve" y="13" clip-path="url(#clipPath6)" stroke="none">dissociation_PPrel</text>
      </g>
      <g fill="rgb(49,106,196)" text-rendering="geometricPrecision" shape-rendering="geometricPrecision" font-family="sans-serif" stroke="rgb(49,106,196)">
        <path d="M0 0 L90 0 L90 17 L0 17 L0 0 ZM1 1 L89 1 L89 16 L1 16 L1 1 Z" fill-rule="evenodd" clip-path="url(#clipPath6)" stroke="none"/>
      </g>
    </g>
    <g visibility="hidden" id="tooltip.y.edge.20" pointer-events="none">
      <g fill="rgb(195,212,232)" text-rendering="geometricPrecision" shape-rendering="geometricPrecision" font-family="sans-serif" stroke="rgb(195,212,232)">
        <rect x="0" width="90" height="17" y="0" clip-path="url(#clipPath6)" stroke="none"/>
        <text fill="black" x="4" xml:space="preserve" y="13" clip-path="url(#clipPath6)" stroke="none">dissociation_PPrel</text>
      </g>
      <g fill="rgb(49,106,196)" text-rendering="geometricPrecision" shape-rendering="geometricPrecision" font-family="sans-serif" stroke="rgb(49,106,196)">
        <path d="M0 0 L90 0 L90 17 L0 17 L0 0 ZM1 1 L89 1 L89 16 L1 16 L1 1 Z" fill-rule="evenodd" clip-path="url(#clipPath6)" stroke="none"/>
      </g>
    </g>
    <g visibility="hidden" id="tooltip.y.edge.21" pointer-events="none">
      <g fill="rgb(195,212,232)" text-rendering="geometricPrecision" shape-rendering="geometricPrecision" font-family="sans-serif" stroke="rgb(195,212,232)">
        <rect x="0" width="90" height="17" y="0" clip-path="url(#clipPath6)" stroke="none"/>
        <text fill="black" x="4" xml:space="preserve" y="13" clip-path="url(#clipPath6)" stroke="none">dissociation_PPrel</text>
      </g>
      <g fill="rgb(49,106,196)" text-rendering="geometricPrecision" shape-rendering="geometricPrecision" font-family="sans-serif" stroke="rgb(49,106,196)">
        <path d="M0 0 L90 0 L90 17 L0 17 L0 0 ZM1 1 L89 1 L89 16 L1 16 L1 1 Z" fill-rule="evenodd" clip-path="url(#clipPath6)" stroke="none"/>
      </g>
    </g>
  </g>
</svg>
