<?xml version="1.0" encoding="UTF-8"?><svg xmlns="http://www.w3.org/2000/svg" xmlns:xlink="http://www.w3.org/1999/xlink" fill-opacity="1" color-rendering="auto" color-interpolation="auto" text-rendering="auto" stroke="black" stroke-linecap="square" width="736" stroke-miterlimit="10" shape-rendering="auto" stroke-opacity="1" fill="black" stroke-dasharray="none" font-weight="normal" stroke-width="1" height="469" font-family="'Dialog'" font-style="normal" stroke-linejoin="miter" font-size="12px" stroke-dashoffset="0" image-rendering="auto">
  <!--Generated by ySVG 2.5-->
  <defs id="genericDefs"/>
  <g>
    <defs id="defs1">
      <linearGradient x1="346.3471" gradientUnits="userSpaceOnUse" x2="371.2405" y1="61" y2="61" id="linearGradient1" spreadMethod="reflect">
        <stop stop-opacity="1" stop-color="lime" offset="0%"/>
        <stop stop-opacity="1" stop-color="red" offset="100%"/>
      </linearGradient>
      <clipPath clipPathUnits="userSpaceOnUse" id="clipPath1">
        <path d="M0 0 L736 0 L736 469 L0 469 L0 0 Z"/>
      </clipPath>
      <clipPath clipPathUnits="userSpaceOnUse" id="clipPath2">
        <path d="M-15 -31 L721 -31 L721 438 L-15 438 L-15 -31 Z"/>
      </clipPath>
      <clipPath clipPathUnits="userSpaceOnUse" id="clipPath3">
        <path d="M0 0 L0 17 L223 17 L223 0 Z"/>
      </clipPath>
      <clipPath clipPathUnits="userSpaceOnUse" id="clipPath4">
        <path d="M0 0 L0 17 L122 17 L122 0 Z"/>
      </clipPath>
      <clipPath clipPathUnits="userSpaceOnUse" id="clipPath5">
        <path d="M0 0 L0 17 L106 17 L106 0 Z"/>
      </clipPath>
      <clipPath clipPathUnits="userSpaceOnUse" id="clipPath6">
        <path d="M0 0 L0 17 L110 17 L110 0 Z"/>
      </clipPath>
      <script type="text/ecmascript">
        <![CDATA[      var SVGDocument = null;
      var SVGRoot = null;
      var TrueCoords = null;
      var lastElement = null;
      var initialized = null;
      var tipGroup;
      function Init(evt)
      {
         SVGDocument = evt.target.ownerDocument;
         SVGRoot = SVGDocument.documentElement;
         TrueCoords = SVGRoot.createSVGPoint();
         initialized = evt;
      };
      function GetTrueCoords(evt)
      {
         var newScale = SVGRoot.currentScale;
         var translation = SVGRoot.currentTranslate;
         TrueCoords.x = (evt.clientX - translation.x)/newScale;
         TrueCoords.y = (evt.clientY - translation.y)/newScale;
      };
      function HideTooltip( evt )
      {
         if(initialized == null) {
           Init(evt);
         }
         if(tipGroup != null) {
           tipGroup.setAttributeNS(null, 'visibility', 'hidden');
         }
      };
      function ShowTooltip( evt )
      {
         if(initialized == null) {
           Init(evt);
         }
         GetTrueCoords( evt );
         var tipScale = 1/SVGRoot.currentScale;
         var targetElement = evt.currentTarget;
         if ( lastElement != targetElement )
         {
            var targetId = targetElement.getAttributeNS(null, 'id');
            var tipId = 'tooltip.' + targetId;
            tipGroup = SVGDocument.getElementById(tipId);
            var xPos = TrueCoords.x + (10 * tipScale);
            var yPos = TrueCoords.y + (10 * tipScale);
            tipGroup.setAttributeNS(null, 'transform', 'translate(' + xPos + ',' + yPos + ') scale(' + tipScale + ')');
            tipGroup.setAttributeNS(null, 'visibility', 'visible');
         }
      };
]]>
      </script>
    </defs>
    <g fill="white" text-rendering="geometricPrecision" shape-rendering="geometricPrecision" transform="translate(15,31)" stroke="white">
      <rect x="-15" width="736" height="469" y="-31" clip-path="url(#clipPath2)" stroke="none"/>
    </g>
    <g id="y.node.0">
      <g fill="rgb(204,204,255)" text-rendering="geometricPrecision" shape-rendering="geometricPrecision" transform="matrix(1,0,0,1,15,31)" stroke="rgb(204,204,255)">
        <rect x="315.2331" y="0" width="93.3446" rx="4" ry="4" height="30" stroke="none"/>
      </g>
      <g>
        <g text-rendering="geometricPrecision" stroke-miterlimit="1.45" shape-rendering="geometricPrecision" font-family="sans-serif" transform="matrix(1,0,0,1,15,31)" stroke-linecap="butt">
          <text x="322.2331" xml:space="preserve" y="17.748" stroke="none">CCNE1::CDK2</text>
        </g>
      </g>
    </g>
    <g id="y.node.1">
      <g fill="url(#linearGradient1)" text-rendering="geometricPrecision" shape-rendering="geometricPrecision" transform="matrix(1,0,0,1,15,31)" stroke="url(#linearGradient1)">
        <rect x="333.9004" y="61" width="37.3402" rx="4" ry="4" height="30" stroke="none"/>
      </g>
      <g>
        <g text-rendering="geometricPrecision" stroke-miterlimit="1.45" shape-rendering="geometricPrecision" font-family="sans-serif" transform="matrix(1,0,0,1,15,31)" stroke-linecap="butt">
          <text x="340.9004" xml:space="preserve" y="78.748" stroke="none">RB1</text>
        </g>
      </g>
    </g>
    <g id="y.node.2">
      <g fill="rgb(204,204,255)" text-rendering="geometricPrecision" shape-rendering="geometricPrecision" transform="matrix(1,0,0,1,15,31)" stroke="rgb(204,204,255)">
        <rect x="121.6908" y="377" width="93.3446" rx="4" ry="4" height="30" stroke="none"/>
      </g>
      <g>
        <g text-rendering="geometricPrecision" stroke-miterlimit="1.45" shape-rendering="geometricPrecision" font-family="sans-serif" transform="matrix(1,0,0,1,15,31)" stroke-linecap="butt">
          <text x="128.6908" xml:space="preserve" y="394.748" stroke="none">CCNE2::CDK2</text>
        </g>
      </g>
    </g>
    <g id="y.node.3">
      <g fill="rgb(204,204,255)" text-rendering="geometricPrecision" shape-rendering="geometricPrecision" transform="matrix(1,0,0,1,15,31)" stroke="rgb(204,204,255)">
        <rect x="401.198" y="327" width="54.6683" rx="4" ry="4" height="30" stroke="none"/>
      </g>
      <g>
        <g text-rendering="geometricPrecision" stroke-miterlimit="1.45" shape-rendering="geometricPrecision" font-family="sans-serif" transform="matrix(1,0,0,1,15,31)" stroke-linecap="butt">
          <text x="408.198" xml:space="preserve" y="344.748" stroke="none">CCNE1</text>
        </g>
      </g>
    </g>
    <g id="y.node.4">
      <g fill="rgb(204,204,255)" text-rendering="geometricPrecision" shape-rendering="geometricPrecision" transform="matrix(1,0,0,1,15,31)" stroke="rgb(204,204,255)">
        <rect x="141.029" y="327" width="54.6683" rx="4" ry="4" height="30" stroke="none"/>
      </g>
      <g>
        <g text-rendering="geometricPrecision" stroke-miterlimit="1.45" shape-rendering="geometricPrecision" font-family="sans-serif" transform="matrix(1,0,0,1,15,31)" stroke-linecap="butt">
          <text x="148.0289" xml:space="preserve" y="344.748" stroke="none">CCNE2</text>
        </g>
      </g>
    </g>
    <g id="y.node.5">
      <g fill="rgb(204,204,255)" text-rendering="geometricPrecision" shape-rendering="geometricPrecision" transform="matrix(1,0,0,1,15,31)" stroke="rgb(204,204,255)">
        <rect x="602.284" y="154" width="87.3565" rx="4" ry="4" height="30" stroke="none"/>
      </g>
      <g>
        <g text-rendering="geometricPrecision" stroke-miterlimit="1.45" shape-rendering="geometricPrecision" font-family="sans-serif" transform="matrix(1,0,0,1,15,31)" stroke-linecap="butt">
          <text x="609.2841" xml:space="preserve" y="171.748" stroke="none">E2F1::TFDP1</text>
        </g>
      </g>
    </g>
    <g id="y.node.6">
      <g fill="rgb(204,204,255)" text-rendering="geometricPrecision" shape-rendering="geometricPrecision" transform="matrix(1,0,0,1,15,31)" stroke="rgb(204,204,255)">
        <rect x="484.9273" y="154" width="87.3565" rx="4" ry="4" height="30" stroke="none"/>
      </g>
      <g>
        <g text-rendering="geometricPrecision" stroke-miterlimit="1.45" shape-rendering="geometricPrecision" font-family="sans-serif" transform="matrix(1,0,0,1,15,31)" stroke-linecap="butt">
          <text x="491.9273" xml:space="preserve" y="171.748" stroke="none">E2F1::TFDP2</text>
        </g>
      </g>
    </g>
    <g id="y.node.7">
      <g fill="rgb(204,204,255)" text-rendering="geometricPrecision" shape-rendering="geometricPrecision" transform="matrix(1,0,0,1,15,31)" stroke="rgb(204,204,255)">
        <rect x="367.5706" y="154" width="87.3565" rx="4" ry="4" height="30" stroke="none"/>
      </g>
      <g>
        <g text-rendering="geometricPrecision" stroke-miterlimit="1.45" shape-rendering="geometricPrecision" font-family="sans-serif" transform="matrix(1,0,0,1,15,31)" stroke-linecap="butt">
          <text x="374.5706" xml:space="preserve" y="171.748" stroke="none">E2F2::TFDP1</text>
        </g>
      </g>
    </g>
    <g id="y.node.8">
      <g fill="rgb(204,204,255)" text-rendering="geometricPrecision" shape-rendering="geometricPrecision" transform="matrix(1,0,0,1,15,31)" stroke="rgb(204,204,255)">
        <rect x="250.2138" y="154" width="87.3565" rx="4" ry="4" height="30" stroke="none"/>
      </g>
      <g>
        <g text-rendering="geometricPrecision" stroke-miterlimit="1.45" shape-rendering="geometricPrecision" font-family="sans-serif" transform="matrix(1,0,0,1,15,31)" stroke-linecap="butt">
          <text x="257.2138" xml:space="preserve" y="171.748" stroke="none">E2F2::TFDP2</text>
        </g>
      </g>
    </g>
    <g id="y.node.9">
      <g fill="rgb(204,204,255)" text-rendering="geometricPrecision" shape-rendering="geometricPrecision" transform="matrix(1,0,0,1,15,31)" stroke="rgb(204,204,255)">
        <rect x="132.8571" y="154" width="87.3565" rx="4" ry="4" height="30" stroke="none"/>
      </g>
      <g>
        <g text-rendering="geometricPrecision" stroke-miterlimit="1.45" shape-rendering="geometricPrecision" font-family="sans-serif" transform="matrix(1,0,0,1,15,31)" stroke-linecap="butt">
          <text x="139.8571" xml:space="preserve" y="171.748" stroke="none">E2F3::TFDP1</text>
        </g>
      </g>
    </g>
    <g id="y.node.10">
      <g fill="rgb(204,204,255)" text-rendering="geometricPrecision" shape-rendering="geometricPrecision" transform="matrix(1,0,0,1,15,31)" stroke="rgb(204,204,255)">
        <rect x="15.5003" y="154" width="87.3565" rx="4" ry="4" height="30" stroke="none"/>
      </g>
      <g>
        <g text-rendering="geometricPrecision" stroke-miterlimit="1.45" shape-rendering="geometricPrecision" font-family="sans-serif" transform="matrix(1,0,0,1,15,31)" stroke-linecap="butt">
          <text x="22.5003" xml:space="preserve" y="171.748" stroke="none">E2F3::TFDP2</text>
        </g>
      </g>
    </g>
    <g onmouseout="HideTooltip(evt)" id="y.edge.0" onmousemove="ShowTooltip(evt)">
      <g text-rendering="geometricPrecision" stroke-miterlimit="1.45" shape-rendering="geometricPrecision" transform="matrix(1,0,0,1,15,31)" stroke-linecap="butt">
        <path fill="none" d="M361.9054 30 L361.9055 60.9697"/>
      </g>
    </g>
    <g onmouseout="HideTooltip(evt)" id="y.edge.1" onmousemove="ShowTooltip(evt)">
      <g text-rendering="geometricPrecision" stroke-miterlimit="1.45" shape-rendering="geometricPrecision" transform="matrix(1,0,0,1,15,31)" stroke-linecap="butt">
        <path fill="none" d="M168.3631 407 L168.3631 422.5 L0 422.5 L0 45.5 L343.2354 45.5 L343.2354 60.9697"/>
      </g>
    </g>
    <g onmouseout="HideTooltip(evt)" id="y.edge.2" onmousemove="ShowTooltip(evt)">
      <g text-rendering="geometricPrecision" stroke-miterlimit="1.45" shape-rendering="geometricPrecision" transform="matrix(1,0,0,1,15,31)" stroke-linecap="butt">
        <path fill="none" d="M428.5321 357 L428.5321 372.5 L705.1409 372.5 L705.1409 -15.5 L361.9054 -15.5 L361.9054 -0.0303"/>
      </g>
    </g>
    <g onmouseout="HideTooltip(evt)" id="y.edge.3" onmousemove="ShowTooltip(evt)">
      <g text-rendering="geometricPrecision" stroke-miterlimit="1.45" shape-rendering="geometricPrecision" transform="matrix(1,0,0,1,15,31)" stroke-linecap="butt">
        <path fill="none" d="M168.3631 357 L168.3631 376.9609"/>
      </g>
    </g>
    <g onmouseout="HideTooltip(evt)" id="y.edge.16" onmousemove="ShowTooltip(evt)">
      <g text-rendering="geometricPrecision" stroke-miterlimit="1.45" shape-rendering="geometricPrecision" transform="matrix(1,0,0,1,15,31)" stroke-linecap="butt">
        <path fill="none" d="M368.1288 91 L368.1288 106.5 L645.9623 106.5 L645.9623 153.9536"/>
      </g>
    </g>
    <g onmouseout="HideTooltip(evt)" id="y.edge.4" onmousemove="ShowTooltip(evt)">
      <g text-rendering="geometricPrecision" stroke-miterlimit="1.45" shape-rendering="geometricPrecision" transform="matrix(1,0,0,1,15,31)" stroke-linecap="butt">
        <path fill="none" d="M667.8015 184 L667.8015 311.5 L451.3106 311.5 L451.3106 326.9697"/>
      </g>
    </g>
    <g onmouseout="HideTooltip(evt)" id="y.edge.10" onmousemove="ShowTooltip(evt)">
      <g text-rendering="geometricPrecision" stroke-miterlimit="1.45" shape-rendering="geometricPrecision" transform="matrix(1,0,0,1,15,31)" stroke-linecap="butt">
        <path fill="none" d="M624.1232 184 L624.1232 295.5 L191.1416 295.5 L191.1416 326.9692"/>
      </g>
    </g>
    <g onmouseout="HideTooltip(evt)" id="y.edge.17" onmousemove="ShowTooltip(evt)">
      <g text-rendering="geometricPrecision" stroke-miterlimit="1.45" shape-rendering="geometricPrecision" transform="matrix(1,0,0,1,15,31)" stroke-linecap="butt">
        <path fill="none" d="M361.9055 91 L361.9055 122.5 L528.6055 122.5 L528.6055 153.9692"/>
      </g>
    </g>
    <g onmouseout="HideTooltip(evt)" id="y.edge.5" onmousemove="ShowTooltip(evt)">
      <g text-rendering="geometricPrecision" stroke-miterlimit="1.45" shape-rendering="geometricPrecision" transform="matrix(1,0,0,1,15,31)" stroke-linecap="butt">
        <path fill="none" d="M550.4447 184 L550.4447 279.5 L442.1992 279.5 L442.1992 290.5 M442.1992 300.5 L442.1992 326.9536"/>
      </g>
    </g>
    <g onmouseout="HideTooltip(evt)" id="y.edge.11" onmousemove="ShowTooltip(evt)">
      <g text-rendering="geometricPrecision" stroke-miterlimit="1.45" shape-rendering="geometricPrecision" transform="matrix(1,0,0,1,15,31)" stroke-linecap="butt">
        <path fill="none" d="M506.7664 184 L506.7664 263.5 L182.0302 263.5 L182.0302 326.969"/>
      </g>
    </g>
    <g onmouseout="HideTooltip(evt)" id="y.edge.18" onmousemove="ShowTooltip(evt)">
      <g text-rendering="geometricPrecision" stroke-miterlimit="1.45" shape-rendering="geometricPrecision" transform="matrix(1,0,0,1,15,31)" stroke-linecap="butt">
        <path fill="none" d="M355.6821 91 L355.6821 138.5 L411.2488 138.5 L411.2488 153.9697"/>
      </g>
    </g>
    <g onmouseout="HideTooltip(evt)" id="y.edge.6" onmousemove="ShowTooltip(evt)">
      <g text-rendering="geometricPrecision" stroke-miterlimit="1.45" shape-rendering="geometricPrecision" transform="matrix(1,0,0,1,15,31)" stroke-linecap="butt">
        <path fill="none" d="M433.0879 184 L433.0879 258.5 M433.0879 268.5 L433.0879 290.5 M433.0879 300.5 L433.0878 326.9651"/>
      </g>
    </g>
    <g onmouseout="HideTooltip(evt)" id="y.edge.12" onmousemove="ShowTooltip(evt)">
      <g text-rendering="geometricPrecision" stroke-miterlimit="1.45" shape-rendering="geometricPrecision" transform="matrix(1,0,0,1,15,31)" stroke-linecap="butt">
        <path fill="none" d="M389.4097 184 L389.4097 231.5 L172.9188 231.5 L172.9188 326.9534"/>
      </g>
    </g>
    <g onmouseout="HideTooltip(evt)" id="y.edge.19" onmousemove="ShowTooltip(evt)">
      <g text-rendering="geometricPrecision" stroke-miterlimit="1.45" shape-rendering="geometricPrecision" transform="matrix(1,0,0,1,15,31)" stroke-linecap="butt">
        <path fill="none" d="M349.4588 91 L349.4588 138.5 L293.8921 138.5 L293.8921 153.9697"/>
      </g>
    </g>
    <g onmouseout="HideTooltip(evt)" id="y.edge.7" onmousemove="ShowTooltip(evt)">
      <g text-rendering="geometricPrecision" stroke-miterlimit="1.45" shape-rendering="geometricPrecision" transform="matrix(1,0,0,1,15,31)" stroke-linecap="butt">
        <path fill="none" d="M315.7312 184 L315.7312 199.5 L384.4097 199.5 M394.4097 199.5 L423.9764 199.5 L423.9764 258.5 M423.9764 268.5 L423.9764 290.5 M423.9764 300.5 L423.9764 326.9689"/>
      </g>
    </g>
    <g onmouseout="HideTooltip(evt)" id="y.edge.13" onmousemove="ShowTooltip(evt)">
      <g text-rendering="geometricPrecision" stroke-miterlimit="1.45" shape-rendering="geometricPrecision" transform="matrix(1,0,0,1,15,31)" stroke-linecap="butt">
        <path fill="none" d="M272.0529 184 L272.0529 199.5 L163.8074 199.5 L163.8074 326.9689"/>
      </g>
    </g>
    <g onmouseout="HideTooltip(evt)" id="y.edge.20" onmousemove="ShowTooltip(evt)">
      <g text-rendering="geometricPrecision" stroke-miterlimit="1.45" shape-rendering="geometricPrecision" transform="matrix(1,0,0,1,15,31)" stroke-linecap="butt">
        <path fill="none" d="M343.2354 91 L343.2354 122.5 L176.5353 122.5 L176.5353 153.9692"/>
      </g>
    </g>
    <g onmouseout="HideTooltip(evt)" id="y.edge.8" onmousemove="ShowTooltip(evt)">
      <g text-rendering="geometricPrecision" stroke-miterlimit="1.45" shape-rendering="geometricPrecision" transform="matrix(1,0,0,1,15,31)" stroke-linecap="butt">
        <path fill="none" d="M198.3745 184 L198.3745 194.5 M198.3745 204.5 L198.3745 215.5 L384.4097 215.5 M394.4097 215.5 L414.8651 215.5 L414.8651 258.5 M414.8651 268.5 L414.8651 290.5 M414.8651 300.5 L414.8651 326.9728"/>
      </g>
    </g>
    <g onmouseout="HideTooltip(evt)" id="y.edge.14" onmousemove="ShowTooltip(evt)">
      <g text-rendering="geometricPrecision" stroke-miterlimit="1.45" shape-rendering="geometricPrecision" transform="matrix(1,0,0,1,15,31)" stroke-linecap="butt">
        <path fill="none" d="M154.6962 184 L154.696 326.9651"/>
      </g>
    </g>
    <g onmouseout="HideTooltip(evt)" id="y.edge.21" onmousemove="ShowTooltip(evt)">
      <g text-rendering="geometricPrecision" stroke-miterlimit="1.45" shape-rendering="geometricPrecision" transform="matrix(1,0,0,1,15,31)" stroke-linecap="butt">
        <path fill="none" d="M337.012 91 L337.012 106.5 L59.1786 106.5 L59.1786 153.9536"/>
      </g>
    </g>
    <g onmouseout="HideTooltip(evt)" id="y.edge.9" onmousemove="ShowTooltip(evt)">
      <g text-rendering="geometricPrecision" stroke-miterlimit="1.45" shape-rendering="geometricPrecision" transform="matrix(1,0,0,1,15,31)" stroke-linecap="butt">
        <path fill="none" d="M81.0177 184 L81.0177 247.5 L149.6961 247.5 M177.9188 247.5 L405.7537 247.5 L405.7537 258.5 M405.7537 268.5 L405.7537 290.5 M405.7537 300.5 L405.7537 326.9612"/>
      </g>
    </g>
    <g onmouseout="HideTooltip(evt)" id="y.edge.15" onmousemove="ShowTooltip(evt)">
      <g text-rendering="geometricPrecision" stroke-miterlimit="1.45" shape-rendering="geometricPrecision" transform="matrix(1,0,0,1,15,31)" stroke-linecap="butt">
        <path fill="none" d="M37.3394 184 L37.3394 263.5 L145.5846 263.5 L145.5846 326.969"/>
      </g>
    </g>
    <g visibility="hidden" id="tooltip.y.edge.0" pointer-events="none">
      <g fill="rgb(195,212,232)" text-rendering="geometricPrecision" shape-rendering="geometricPrecision" font-family="sans-serif" stroke="rgb(195,212,232)">
        <rect x="0" width="223" height="17" y="0" clip-path="url(#clipPath3)" stroke="none"/>
        <text fill="black" x="4" xml:space="preserve" y="12" clip-path="url(#clipPath3)" stroke="none">inhibition_PPrel,phosphorylation_PPrel</text>
      </g>
      <g fill="rgb(49,106,196)" text-rendering="geometricPrecision" shape-rendering="geometricPrecision" font-family="sans-serif" stroke="rgb(49,106,196)">
        <path d="M0 0 L223 0 L223 17 L0 17 L0 0 ZM1 1 L222 1 L222 16 L1 16 L1 1 Z" fill-rule="evenodd" clip-path="url(#clipPath3)" stroke="none"/>
      </g>
    </g>
    <g visibility="hidden" id="tooltip.y.edge.1" pointer-events="none">
      <g fill="rgb(195,212,232)" text-rendering="geometricPrecision" shape-rendering="geometricPrecision" font-family="sans-serif" stroke="rgb(195,212,232)">
        <rect x="0" width="223" height="17" y="0" clip-path="url(#clipPath3)" stroke="none"/>
        <text fill="black" x="4" xml:space="preserve" y="12" clip-path="url(#clipPath3)" stroke="none">inhibition_PPrel,phosphorylation_PPrel</text>
      </g>
      <g fill="rgb(49,106,196)" text-rendering="geometricPrecision" shape-rendering="geometricPrecision" font-family="sans-serif" stroke="rgb(49,106,196)">
        <path d="M0 0 L223 0 L223 17 L0 17 L0 0 ZM1 1 L222 1 L222 16 L1 16 L1 1 Z" fill-rule="evenodd" clip-path="url(#clipPath3)" stroke="none"/>
      </g>
    </g>
    <g visibility="hidden" id="tooltip.y.edge.2" pointer-events="none">
      <g fill="rgb(195,212,232)" text-rendering="geometricPrecision" shape-rendering="geometricPrecision" font-family="sans-serif" stroke="rgb(195,212,232)">
        <rect x="0" width="122" height="17" y="0" clip-path="url(#clipPath4)" stroke="none"/>
        <text fill="black" x="4" xml:space="preserve" y="12" clip-path="url(#clipPath4)" stroke="none">membership_CPXrel</text>
      </g>
      <g fill="rgb(49,106,196)" text-rendering="geometricPrecision" shape-rendering="geometricPrecision" font-family="sans-serif" stroke="rgb(49,106,196)">
        <path d="M0 0 L122 0 L122 17 L0 17 L0 0 ZM1 1 L121 1 L121 16 L1 16 L1 1 Z" fill-rule="evenodd" clip-path="url(#clipPath4)" stroke="none"/>
      </g>
    </g>
    <g visibility="hidden" id="tooltip.y.edge.3" pointer-events="none">
      <g fill="rgb(195,212,232)" text-rendering="geometricPrecision" shape-rendering="geometricPrecision" font-family="sans-serif" stroke="rgb(195,212,232)">
        <rect x="0" width="122" height="17" y="0" clip-path="url(#clipPath4)" stroke="none"/>
        <text fill="black" x="4" xml:space="preserve" y="12" clip-path="url(#clipPath4)" stroke="none">membership_CPXrel</text>
      </g>
      <g fill="rgb(49,106,196)" text-rendering="geometricPrecision" shape-rendering="geometricPrecision" font-family="sans-serif" stroke="rgb(49,106,196)">
        <path d="M0 0 L122 0 L122 17 L0 17 L0 0 ZM1 1 L121 1 L121 16 L1 16 L1 1 Z" fill-rule="evenodd" clip-path="url(#clipPath4)" stroke="none"/>
      </g>
    </g>
    <g visibility="hidden" id="tooltip.y.edge.4" pointer-events="none">
      <g fill="rgb(195,212,232)" text-rendering="geometricPrecision" shape-rendering="geometricPrecision" font-family="sans-serif" stroke="rgb(195,212,232)">
        <rect x="0" width="106" height="17" y="0" clip-path="url(#clipPath5)" stroke="none"/>
        <text fill="black" x="4" xml:space="preserve" y="12" clip-path="url(#clipPath5)" stroke="none">expression_GErel</text>
      </g>
      <g fill="rgb(49,106,196)" text-rendering="geometricPrecision" shape-rendering="geometricPrecision" font-family="sans-serif" stroke="rgb(49,106,196)">
        <path d="M0 0 L106 0 L106 17 L0 17 L0 0 ZM1 1 L105 1 L105 16 L1 16 L1 1 Z" fill-rule="evenodd" clip-path="url(#clipPath5)" stroke="none"/>
      </g>
    </g>
    <g visibility="hidden" id="tooltip.y.edge.5" pointer-events="none">
      <g fill="rgb(195,212,232)" text-rendering="geometricPrecision" shape-rendering="geometricPrecision" font-family="sans-serif" stroke="rgb(195,212,232)">
        <rect x="0" width="106" height="17" y="0" clip-path="url(#clipPath5)" stroke="none"/>
        <text fill="black" x="4" xml:space="preserve" y="12" clip-path="url(#clipPath5)" stroke="none">expression_GErel</text>
      </g>
      <g fill="rgb(49,106,196)" text-rendering="geometricPrecision" shape-rendering="geometricPrecision" font-family="sans-serif" stroke="rgb(49,106,196)">
        <path d="M0 0 L106 0 L106 17 L0 17 L0 0 ZM1 1 L105 1 L105 16 L1 16 L1 1 Z" fill-rule="evenodd" clip-path="url(#clipPath5)" stroke="none"/>
      </g>
    </g>
    <g visibility="hidden" id="tooltip.y.edge.6" pointer-events="none">
      <g fill="rgb(195,212,232)" text-rendering="geometricPrecision" shape-rendering="geometricPrecision" font-family="sans-serif" stroke="rgb(195,212,232)">
        <rect x="0" width="106" height="17" y="0" clip-path="url(#clipPath5)" stroke="none"/>
        <text fill="black" x="4" xml:space="preserve" y="12" clip-path="url(#clipPath5)" stroke="none">expression_GErel</text>
      </g>
      <g fill="rgb(49,106,196)" text-rendering="geometricPrecision" shape-rendering="geometricPrecision" font-family="sans-serif" stroke="rgb(49,106,196)">
        <path d="M0 0 L106 0 L106 17 L0 17 L0 0 ZM1 1 L105 1 L105 16 L1 16 L1 1 Z" fill-rule="evenodd" clip-path="url(#clipPath5)" stroke="none"/>
      </g>
    </g>
    <g visibility="hidden" id="tooltip.y.edge.7" pointer-events="none">
      <g fill="rgb(195,212,232)" text-rendering="geometricPrecision" shape-rendering="geometricPrecision" font-family="sans-serif" stroke="rgb(195,212,232)">
        <rect x="0" width="106" height="17" y="0" clip-path="url(#clipPath5)" stroke="none"/>
        <text fill="black" x="4" xml:space="preserve" y="12" clip-path="url(#clipPath5)" stroke="none">expression_GErel</text>
      </g>
      <g fill="rgb(49,106,196)" text-rendering="geometricPrecision" shape-rendering="geometricPrecision" font-family="sans-serif" stroke="rgb(49,106,196)">
        <path d="M0 0 L106 0 L106 17 L0 17 L0 0 ZM1 1 L105 1 L105 16 L1 16 L1 1 Z" fill-rule="evenodd" clip-path="url(#clipPath5)" stroke="none"/>
      </g>
    </g>
    <g visibility="hidden" id="tooltip.y.edge.8" pointer-events="none">
      <g fill="rgb(195,212,232)" text-rendering="geometricPrecision" shape-rendering="geometricPrecision" font-family="sans-serif" stroke="rgb(195,212,232)">
        <rect x="0" width="106" height="17" y="0" clip-path="url(#clipPath5)" stroke="none"/>
        <text fill="black" x="4" xml:space="preserve" y="12" clip-path="url(#clipPath5)" stroke="none">expression_GErel</text>
      </g>
      <g fill="rgb(49,106,196)" text-rendering="geometricPrecision" shape-rendering="geometricPrecision" font-family="sans-serif" stroke="rgb(49,106,196)">
        <path d="M0 0 L106 0 L106 17 L0 17 L0 0 ZM1 1 L105 1 L105 16 L1 16 L1 1 Z" fill-rule="evenodd" clip-path="url(#clipPath5)" stroke="none"/>
      </g>
    </g>
    <g visibility="hidden" id="tooltip.y.edge.9" pointer-events="none">
      <g fill="rgb(195,212,232)" text-rendering="geometricPrecision" shape-rendering="geometricPrecision" font-family="sans-serif" stroke="rgb(195,212,232)">
        <rect x="0" width="106" height="17" y="0" clip-path="url(#clipPath5)" stroke="none"/>
        <text fill="black" x="4" xml:space="preserve" y="12" clip-path="url(#clipPath5)" stroke="none">expression_GErel</text>
      </g>
      <g fill="rgb(49,106,196)" text-rendering="geometricPrecision" shape-rendering="geometricPrecision" font-family="sans-serif" stroke="rgb(49,106,196)">
        <path d="M0 0 L106 0 L106 17 L0 17 L0 0 ZM1 1 L105 1 L105 16 L1 16 L1 1 Z" fill-rule="evenodd" clip-path="url(#clipPath5)" stroke="none"/>
      </g>
    </g>
    <g visibility="hidden" id="tooltip.y.edge.10" pointer-events="none">
      <g fill="rgb(195,212,232)" text-rendering="geometricPrecision" shape-rendering="geometricPrecision" font-family="sans-serif" stroke="rgb(195,212,232)">
        <rect x="0" width="106" height="17" y="0" clip-path="url(#clipPath5)" stroke="none"/>
        <text fill="black" x="4" xml:space="preserve" y="12" clip-path="url(#clipPath5)" stroke="none">expression_GErel</text>
      </g>
      <g fill="rgb(49,106,196)" text-rendering="geometricPrecision" shape-rendering="geometricPrecision" font-family="sans-serif" stroke="rgb(49,106,196)">
        <path d="M0 0 L106 0 L106 17 L0 17 L0 0 ZM1 1 L105 1 L105 16 L1 16 L1 1 Z" fill-rule="evenodd" clip-path="url(#clipPath5)" stroke="none"/>
      </g>
    </g>
    <g visibility="hidden" id="tooltip.y.edge.11" pointer-events="none">
      <g fill="rgb(195,212,232)" text-rendering="geometricPrecision" shape-rendering="geometricPrecision" font-family="sans-serif" stroke="rgb(195,212,232)">
        <rect x="0" width="106" height="17" y="0" clip-path="url(#clipPath5)" stroke="none"/>
        <text fill="black" x="4" xml:space="preserve" y="12" clip-path="url(#clipPath5)" stroke="none">expression_GErel</text>
      </g>
      <g fill="rgb(49,106,196)" text-rendering="geometricPrecision" shape-rendering="geometricPrecision" font-family="sans-serif" stroke="rgb(49,106,196)">
        <path d="M0 0 L106 0 L106 17 L0 17 L0 0 ZM1 1 L105 1 L105 16 L1 16 L1 1 Z" fill-rule="evenodd" clip-path="url(#clipPath5)" stroke="none"/>
      </g>
    </g>
    <g visibility="hidden" id="tooltip.y.edge.12" pointer-events="none">
      <g fill="rgb(195,212,232)" text-rendering="geometricPrecision" shape-rendering="geometricPrecision" font-family="sans-serif" stroke="rgb(195,212,232)">
        <rect x="0" width="106" height="17" y="0" clip-path="url(#clipPath5)" stroke="none"/>
        <text fill="black" x="4" xml:space="preserve" y="12" clip-path="url(#clipPath5)" stroke="none">expression_GErel</text>
      </g>
      <g fill="rgb(49,106,196)" text-rendering="geometricPrecision" shape-rendering="geometricPrecision" font-family="sans-serif" stroke="rgb(49,106,196)">
        <path d="M0 0 L106 0 L106 17 L0 17 L0 0 ZM1 1 L105 1 L105 16 L1 16 L1 1 Z" fill-rule="evenodd" clip-path="url(#clipPath5)" stroke="none"/>
      </g>
    </g>
    <g visibility="hidden" id="tooltip.y.edge.13" pointer-events="none">
      <g fill="rgb(195,212,232)" text-rendering="geometricPrecision" shape-rendering="geometricPrecision" font-family="sans-serif" stroke="rgb(195,212,232)">
        <rect x="0" width="106" height="17" y="0" clip-path="url(#clipPath5)" stroke="none"/>
        <text fill="black" x="4" xml:space="preserve" y="12" clip-path="url(#clipPath5)" stroke="none">expression_GErel</text>
      </g>
      <g fill="rgb(49,106,196)" text-rendering="geometricPrecision" shape-rendering="geometricPrecision" font-family="sans-serif" stroke="rgb(49,106,196)">
        <path d="M0 0 L106 0 L106 17 L0 17 L0 0 ZM1 1 L105 1 L105 16 L1 16 L1 1 Z" fill-rule="evenodd" clip-path="url(#clipPath5)" stroke="none"/>
      </g>
    </g>
    <g visibility="hidden" id="tooltip.y.edge.14" pointer-events="none">
      <g fill="rgb(195,212,232)" text-rendering="geometricPrecision" shape-rendering="geometricPrecision" font-family="sans-serif" stroke="rgb(195,212,232)">
        <rect x="0" width="106" height="17" y="0" clip-path="url(#clipPath5)" stroke="none"/>
        <text fill="black" x="4" xml:space="preserve" y="12" clip-path="url(#clipPath5)" stroke="none">expression_GErel</text>
      </g>
      <g fill="rgb(49,106,196)" text-rendering="geometricPrecision" shape-rendering="geometricPrecision" font-family="sans-serif" stroke="rgb(49,106,196)">
        <path d="M0 0 L106 0 L106 17 L0 17 L0 0 ZM1 1 L105 1 L105 16 L1 16 L1 1 Z" fill-rule="evenodd" clip-path="url(#clipPath5)" stroke="none"/>
      </g>
    </g>
    <g visibility="hidden" id="tooltip.y.edge.15" pointer-events="none">
      <g fill="rgb(195,212,232)" text-rendering="geometricPrecision" shape-rendering="geometricPrecision" font-family="sans-serif" stroke="rgb(195,212,232)">
        <rect x="0" width="106" height="17" y="0" clip-path="url(#clipPath5)" stroke="none"/>
        <text fill="black" x="4" xml:space="preserve" y="12" clip-path="url(#clipPath5)" stroke="none">expression_GErel</text>
      </g>
      <g fill="rgb(49,106,196)" text-rendering="geometricPrecision" shape-rendering="geometricPrecision" font-family="sans-serif" stroke="rgb(49,106,196)">
        <path d="M0 0 L106 0 L106 17 L0 17 L0 0 ZM1 1 L105 1 L105 16 L1 16 L1 1 Z" fill-rule="evenodd" clip-path="url(#clipPath5)" stroke="none"/>
      </g>
    </g>
    <g visibility="hidden" id="tooltip.y.edge.16" pointer-events="none">
      <g fill="rgb(195,212,232)" text-rendering="geometricPrecision" shape-rendering="geometricPrecision" font-family="sans-serif" stroke="rgb(195,212,232)">
        <rect x="0" width="110" height="17" y="0" clip-path="url(#clipPath6)" stroke="none"/>
        <text fill="black" x="4" xml:space="preserve" y="12" clip-path="url(#clipPath6)" stroke="none">dissociation_PPrel</text>
      </g>
      <g fill="rgb(49,106,196)" text-rendering="geometricPrecision" shape-rendering="geometricPrecision" font-family="sans-serif" stroke="rgb(49,106,196)">
        <path d="M0 0 L110 0 L110 17 L0 17 L0 0 ZM1 1 L109 1 L109 16 L1 16 L1 1 Z" fill-rule="evenodd" clip-path="url(#clipPath6)" stroke="none"/>
      </g>
    </g>
    <g visibility="hidden" id="tooltip.y.edge.17" pointer-events="none">
      <g fill="rgb(195,212,232)" text-rendering="geometricPrecision" shape-rendering="geometricPrecision" font-family="sans-serif" stroke="rgb(195,212,232)">
        <rect x="0" width="110" height="17" y="0" clip-path="url(#clipPath6)" stroke="none"/>
        <text fill="black" x="4" xml:space="preserve" y="12" clip-path="url(#clipPath6)" stroke="none">dissociation_PPrel</text>
      </g>
      <g fill="rgb(49,106,196)" text-rendering="geometricPrecision" shape-rendering="geometricPrecision" font-family="sans-serif" stroke="rgb(49,106,196)">
        <path d="M0 0 L110 0 L110 17 L0 17 L0 0 ZM1 1 L109 1 L109 16 L1 16 L1 1 Z" fill-rule="evenodd" clip-path="url(#clipPath6)" stroke="none"/>
      </g>
    </g>
    <g visibility="hidden" id="tooltip.y.edge.18" pointer-events="none">
      <g fill="rgb(195,212,232)" text-rendering="geometricPrecision" shape-rendering="geometricPrecision" font-family="sans-serif" stroke="rgb(195,212,232)">
        <rect x="0" width="110" height="17" y="0" clip-path="url(#clipPath6)" stroke="none"/>
        <text fill="black" x="4" xml:space="preserve" y="12" clip-path="url(#clipPath6)" stroke="none">dissociation_PPrel</text>
      </g>
      <g fill="rgb(49,106,196)" text-rendering="geometricPrecision" shape-rendering="geometricPrecision" font-family="sans-serif" stroke="rgb(49,106,196)">
        <path d="M0 0 L110 0 L110 17 L0 17 L0 0 ZM1 1 L109 1 L109 16 L1 16 L1 1 Z" fill-rule="evenodd" clip-path="url(#clipPath6)" stroke="none"/>
      </g>
    </g>
    <g visibility="hidden" id="tooltip.y.edge.19" pointer-events="none">
      <g fill="rgb(195,212,232)" text-rendering="geometricPrecision" shape-rendering="geometricPrecision" font-family="sans-serif" stroke="rgb(195,212,232)">
        <rect x="0" width="110" height="17" y="0" clip-path="url(#clipPath6)" stroke="none"/>
        <text fill="black" x="4" xml:space="preserve" y="12" clip-path="url(#clipPath6)" stroke="none">dissociation_PPrel</text>
      </g>
      <g fill="rgb(49,106,196)" text-rendering="geometricPrecision" shape-rendering="geometricPrecision" font-family="sans-serif" stroke="rgb(49,106,196)">
        <path d="M0 0 L110 0 L110 17 L0 17 L0 0 ZM1 1 L109 1 L109 16 L1 16 L1 1 Z" fill-rule="evenodd" clip-path="url(#clipPath6)" stroke="none"/>
      </g>
    </g>
    <g visibility="hidden" id="tooltip.y.edge.20" pointer-events="none">
      <g fill="rgb(195,212,232)" text-rendering="geometricPrecision" shape-rendering="geometricPrecision" font-family="sans-serif" stroke="rgb(195,212,232)">
        <rect x="0" width="110" height="17" y="0" clip-path="url(#clipPath6)" stroke="none"/>
        <text fill="black" x="4" xml:space="preserve" y="12" clip-path="url(#clipPath6)" stroke="none">dissociation_PPrel</text>
      </g>
      <g fill="rgb(49,106,196)" text-rendering="geometricPrecision" shape-rendering="geometricPrecision" font-family="sans-serif" stroke="rgb(49,106,196)">
        <path d="M0 0 L110 0 L110 17 L0 17 L0 0 ZM1 1 L109 1 L109 16 L1 16 L1 1 Z" fill-rule="evenodd" clip-path="url(#clipPath6)" stroke="none"/>
      </g>
    </g>
    <g visibility="hidden" id="tooltip.y.edge.21" pointer-events="none">
      <g fill="rgb(195,212,232)" text-rendering="geometricPrecision" shape-rendering="geometricPrecision" font-family="sans-serif" stroke="rgb(195,212,232)">
        <rect x="0" width="110" height="17" y="0" clip-path="url(#clipPath6)" stroke="none"/>
        <text fill="black" x="4" xml:space="preserve" y="12" clip-path="url(#clipPath6)" stroke="none">dissociation_PPrel</text>
      </g>
      <g fill="rgb(49,106,196)" text-rendering="geometricPrecision" shape-rendering="geometricPrecision" font-family="sans-serif" stroke="rgb(49,106,196)">
        <path d="M0 0 L110 0 L110 17 L0 17 L0 0 ZM1 1 L109 1 L109 16 L1 16 L1 1 Z" fill-rule="evenodd" clip-path="url(#clipPath6)" stroke="none"/>
      </g>
    </g>
  </g>
</svg>
